<?xml version="1.0" standalone="no"?>
<!DOCTYPE svg PUBLIC "-//W3C//DTD SVG 20010904//EN"
 "http://www.w3.org/TR/2001/REC-SVG-20010904/DTD/svg10.dtd">
<svg version="1.0" xmlns="http://www.w3.org/2000/svg"
 width="700.000000pt" height="700.000000pt" viewBox="0 0 700.000000 700.000000"
 preserveAspectRatio="xMidYMid meet">
<metadata>
Created by potrace 1.11, written by Peter Selinger 2001-2013
</metadata>
<g transform="translate(0.000000,700.000000) scale(0.100000,-0.100000)"
fill="#000000" stroke="none">
<path d="M3308 6668 c-102 -178 -254 -442 -338 -588 -84 -146 -161 -278 -170
-295 -9 -16 -40 -69 -69 -117 -28 -48 -51 -89 -51 -91 0 -2 -31 -57 -70 -121
-38 -65 -70 -121 -70 -127 0 -5 -3 -10 -7 -11 -5 0 -233 -2 -508 -3 -392 -2
-499 -5 -497 -15 1 -7 75 -106 163 -221 l159 -210 1 -368 0 -369 -56 -92 c-30
-51 -55 -94 -55 -96 0 -1 -30 -54 -66 -116 -37 -62 -108 -185 -159 -273 -51
-88 -175 -302 -275 -475 -101 -173 -193 -333 -206 -355 -12 -22 -108 -188
-213 -369 -105 -181 -191 -332 -191 -336 0 -10 5738 -11 5744 -2 1 4 -104 192
-236 417 -131 226 -242 416 -245 424 -4 8 -67 118 -140 244 -73 126 -133 230
-133 232 0 2 -17 32 -38 66 -22 35 -50 84 -64 109 -14 25 -102 178 -196 340
l-170 295 1 362 0 363 139 182 c76 101 152 202 168 224 l30 42 -478 0 c-262 1
-491 1 -509 1 -30 1 -35 8 -99 119 -37 64 -79 137 -95 162 -15 25 -37 63 -49
85 -12 22 -64 112 -115 200 -51 88 -103 179 -116 201 -206 360 -525 904 -530
904 -3 0 -89 -145 -191 -322z m218 -296 c11 -20 62 -109 113 -197 52 -88 105
-180 119 -205 14 -25 89 -155 167 -290 166 -287 205 -356 205 -362 0 -3 -283
-5 -630 -5 -346 0 -630 2 -630 4 0 6 51 97 185 328 66 116 193 335 281 487 87
153 161 277 164 278 3 0 14 -17 26 -38z m1374 -1352 c0 -3 -9 -16 -20 -30 -15
-20 -20 -41 -20 -102 l0 -76 -1360 0 -1360 0 0 78 c0 62 -4 82 -20 103 -11 14
-20 27 -20 29 0 2 630 4 1400 4 770 0 1400 -3 1400 -6z m-2553 -602 l-2 -103
-102 -3 -103 -3 0 106 0 105 105 0 104 0 -2 -102z m2009 7 c0 -49 -1 -95 -4
-102 -3 -10 -194 -12 -858 -12 l-854 0 0 104 0 105 857 -2 858 -3 1 -90z m502
-7 l-3 -103 -102 -3 -103 -3 0 106 0 105 105 0 106 0 -3 -102z m-2511 -1255
l-2 -858 -100 0 -100 0 -3 858 -2 857 104 0 105 0 -2 -857z m1004 850 c4 -31
3 -1696 -1 -1702 -3 -4 -164 -7 -357 -7 l-353 0 0 858 0 858 355 0 c195 0 355
-3 356 -7z m1007 -850 l-3 -858 -352 0 c-238 -1 -353 3 -354 10 -3 31 -4 1691
-1 1698 2 4 163 7 358 7 l354 0 -2 -857z m502 -1 l0 -857 -105 -1 -104 0 0
858 0 858 104 0 105 0 0 -858z m-3014 -234 l-1 -623 -357 0 c-239 0 -358 3
-358 10 0 5 9 21 20 35 11 14 20 28 20 32 0 6 36 69 170 298 49 83 446 771
478 828 13 23 25 42 26 42 2 0 2 -280 2 -622z m3359 540 c52 -89 61 -106 125
-218 24 -41 89 -154 145 -250 56 -96 113 -195 127 -220 14 -25 80 -139 147
-255 66 -115 121 -212 121 -215 0 -3 -161 -6 -359 -5 l-358 0 0 622 c0 343 1
623 2 623 1 0 24 -37 50 -82z"/>
<path d="M201 1287 c-45 -79 -81 -145 -81 -148 0 -2 142 -4 315 -3 173 0 315
0 315 -2 0 -1 -48 -85 -106 -186 -59 -101 -118 -203 -132 -228 -14 -25 -34
-58 -44 -75 -10 -16 -21 -37 -25 -45 -4 -8 -35 -62 -69 -120 -112 -192 -240
-415 -246 -431 -5 -14 46 -15 511 -14 284 1 519 3 524 4 4 0 7 5 7 11 0 5 18
39 40 75 22 36 40 67 40 70 0 2 13 23 29 47 16 24 31 52 33 63 3 20 -3 20
-345 20 -191 0 -347 1 -347 2 0 1 50 89 111 195 61 106 120 209 131 228 43 74
254 440 319 553 38 65 69 120 69 122 0 3 -218 5 -484 5 l-484 0 -81 -143z"/>
<path d="M2266 1415 c-10 -8 -74 -46 -141 -85 l-123 -70 3 -383 2 -382 27 -78
c67 -198 228 -351 422 -401 70 -18 205 -21 285 -6 57 11 180 65 219 96 121 97
186 186 227 309 l27 80 2 463 c2 352 0 462 -9 459 -9 -4 -180 -103 -266 -154
-11 -7 -14 -73 -16 -363 -2 -349 -5 -383 -38 -446 -22 -43 -101 -112 -155
-137 -64 -28 -179 -29 -243 0 -54 24 -113 75 -144 123 -48 76 -49 89 -50 547
0 238 -3 434 -5 437 -3 2 -13 -2 -24 -9z"/>
<path d="M5935 1344 l-140 -82 -3 -614 -2 -614 545 0 c300 0 545 2 545 4 0 3
-36 68 -81 146 l-81 141 -306 0 c-169 0 -312 1 -319 3 -9 3 -12 135 -11 548 0
300 -1 546 -3 548 -2 1 -67 -34 -144 -80z"/>
<path d="M4029 1339 l-136 -79 2 -373 c2 -204 6 -385 9 -401 45 -192 164 -346
331 -426 106 -50 159 -61 278 -59 174 3 289 52 413 174 62 62 89 98 118 158
62 129 64 152 65 645 1 243 -1 442 -4 442 -2 0 -49 -26 -102 -57 -54 -32 -109
-64 -123 -71 -68 -36 -63 -6 -63 -383 0 -406 -5 -433 -94 -523 -61 -62 -133
-91 -223 -89 -131 1 -232 67 -285 186 l-29 62 0 437 c-1 285 -4 438 -11 438
-5 -1 -71 -37 -146 -81z"/>
</g>
</svg>
